<svg xmlns="http://www.w3.org/2000/svg" height="800" width="1200" clip-rule="evenodd" fill-rule="evenodd" stroke-linejoin="round" stroke-miterlimit="1.4142" viewBox="-60 -15.236075 520 91.41645"><path d="M396.0992 5.553h.4096v-1.62h.6048l1.1568 1.62h.4816l-1.2-1.663c.3424-.086.8896-.3393.8896-1.0179 0-.8267-.5664-1.0418-1.4848-1.0418h-.8576zm.4096-3.3833h.4384c.5664 0 1.0768.086 1.0768.6976 0 .4349-.3296.7408-.8384.7408h-.6768zm.6576-1.4719c-1.5776 0-2.84 1.3428-2.84 3.0201 0 1.6774 1.2624 3.0203 2.84 3.0203 1.5712 0 2.8336-1.343 2.8336-3.0203 0-1.6773-1.2672-3.02-2.8192-3.02zm0 .3345c1.3808 0 2.4912 1.1995 2.4912 2.681 0 1.4813-1.1104 2.6808-2.4912 2.6808-1.392 0-2.496-1.1995-2.496-2.6808 0-1.4815 1.1088-2.681 2.4816-2.681zM264.5792.373l-4.32 15.5168h-.496c-.9904-3.957-4.9776-4.7168-9.512-4.7168-10.3696 0-15.2992 3.7228-17.7088 13.0415l-1.8064 6.9817c-2.0944 8.0906 2.2816 11.2351 11.4272 11.2351 5.4064 0 9.6368-1.0514 12.2656-5.6438h.28l-1.3856 5.5338h12.5792L277.1488.3776h-12.5696zm-7.2832 26.4555c-1.7904 6.9244-3.6352 7.9136-8.7456 7.9136-5.1872 0-6.2208-.4683-4.2912-7.9136 1.5664-6.0549 2.2096-7.971 8.4016-7.971 6.5552 0 6.1744 2.0357 4.6352 7.971zm54.2768 15.4785h-12.7472l8.2496-31.0431h12.7472zm9.112-34.331h-12.6704l1.976-7.6508h12.76zm33.7264 21.8823c-2.9376 11.3591-8.0928 12.5682-21.5472 12.5682-14.6192 0-17.1616-3.5459-14.0432-15.598 2.6784-10.3605 6.6448-15.6555 22.1312-15.6555 10.8784 0 18.056.9319 15.2368 11.8181h-12.384c.4944-1.6296.5328-2.6188-.1632-3.2591-.6992-.6452-2.08-.8746-4.6768-.8746-4.3968 0-5.9392.9892-7.7488 7.971-1.8576 7.1587-1.0432 7.9137 3.6432 7.9137 5.6208 0 6.192-1.104 7.1728-4.8887h12.3792zm-218.747-16.511c1.2193-4.2483-3.301-4.1861-7.4639-4.1861-9.9837 0-10.9173 2.4563-12.8845 9.2135l-1.8385 6.8098c-2.0053 7.4263.9717 8.21 8.1832 8.21 7.0685 0 9.2833-1.2903 10.8552-7.087h-9.6455l2.072-7.7655h23.7444l-1.9815 7.3116c-3.8105 14.1261-8.9453 16.6923-27.5168 16.6923-16.3614 0-24.0777-2.2364-20.41-15.8035l2.9198-10.8287C105.4323 2.0693 115.4206 0 130.6723 0c13.4464 0 22.9965.0575 19.0621 13.3473zm237.4046 3.8758h.32c3.048-4.8315 7.12-6.0549 12.9552-6.0549 8.3552 0 11.3504 3.2019 9.6448 9.7775l-5.6672 21.3708h-12.3088l4.9824-19.0387c.696-2.9676.072-4.4204-3.968-4.4204-5.544 0-7.1728 2.6761-8.1392 6.4036l-4.5104 17.0555h-12.2272L365.4528.373H377.68zM172.64 11.173c-15.775 0-19.6904 3.1445-22.9198 15.6554-3.1676 12.2194-.6525 15.598 14.8366 15.598 15.9712 0 19.7248-3.025 22.9728-15.598 3.3488-12.9172.9584-15.6555-14.8896-15.6555zm2.5056 15.6554c-1.7152 6.633-2.624 7.9136-8.392 7.9136-5.9776 0-6.3632-1.2855-4.6544-7.9136 1.72-6.638 2.7872-7.971 8.7648-7.971 5.7632 0 5.992 1.3379 4.2816 7.971zm38.5488-15.6555c-15.7808 0-19.6912 3.1446-22.9248 15.6555-3.1632 12.2194-.6432 15.598 14.8416 15.598 15.704 0 19.7328-3.025 22.9776-15.598 3.3392-12.9172.952-15.6555-14.8944-15.6555zM216.2 26.8284c-1.7152 6.633-2.6304 7.9136-8.384 7.9136-5.9824 0-6.3728-1.2855-4.6576-7.9136 1.7136-6.638 2.7808-7.971 8.7632-7.971 5.7648 0 5.992 1.3379 4.2784 7.971z" fill="#1c4882" fill-rule="nonzero"/><path d="M43.6352.3633H16.2757L4.9965 42.3213h27.6168c11.0171 0 17.357-1.424 20.1339-11.6986 1.4146-5.247 1.105-8.989-6.478-9.3808l.1191-.4493c7.102-.8888 9.3501-4.3535 10.7839-9.6579C59.6442 1.9833 53.9666.3633 43.6352.3633zm-4.2915 28.5343c-.9194 3.4025-3.0199 4.2388-7.5211 4.2388H21.3533l2.191-8.2053h10.7743c4.5059 0 5.9633.5018 5.025 3.9665zm3.4198-15.7462c-.9001 3.3452-2.2624 4.019-7.1161 4.019H25.64l2.0482-7.5936h11.6745c3.8535.11 4.082 1.061 3.4008 3.5746zm31.8275 4.5493h21.215l-2.4482 9.1563H72.1714l-4.087 15.4594H54.1667L65.4696.3584h36.8238l-2.4673 9.1324H76.8058z" fill="#cf4037" fill-rule="nonzero"/><path d="M287.5952 23.9466l-4.8208 18.3603-12.7184.0143 8.2832-30.9285h12.2416l-1.3472 5.0225s3.2384-5.008 11.264-5.008h3.6768l-2.0912 7.8514h-8.3584c-2.8528.0575-5.1296 1.1422-6.1296 4.688zm61.416 36.9977l2.5424-9.3426H2.5102L0 60.9443zm7.7248-.4827h-1.3856l2.3392-12.9841h-3.9632l.256-1.4431h9.3088l-.2624 1.443h-3.9584l-2.3344 12.9842m6.336 0h-1.2912L363.6 50.3593h1.2912zm2.2944-12.7547h-1.2896l.2944-1.6774h1.2912l-.296 1.6774m2.744 2.6524l-.2848 1.2519.0192.043c.6416-1.1182 1.7184-1.405 2.6864-1.405 1.6432 0 2.2.9607 1.8608 2.8483l-.128.7264h-1.224l.1184-.669c.2288-1.2474-.056-1.6728-1.1328-1.6728-1.5952 0-2.2816.8985-2.5728 2.6858l-1.1232 6.2937h-1.2912l1.8144-10.1023h1.2576m12.0032 7.0438l-.0656.368c-.4864 2.6714-2.2496 2.81-4.1584 2.81-3.3392 0-3.6112-1.3094-2.92-5.1564.752-4.1957 1.7136-5.1754 4.7824-5.1754 2.7664 0 3.5152.7503 2.8432 4.4825l-.1808 1.018h-6.1632c-.5728 3.1921-.448 3.5936 1.8672 3.5936 1.7568 0 2.352-.129 2.6096-1.5532l.0704-.387zm-.8192-2.8864c.448-2.8673.1904-3.0392-1.7712-3.0392-2.3248 0-2.5344.7073-3.0544 3.0392h4.8256m10.2784-1.5197H388.24l.072-.387c.1808-1.018-.472-1.018-1.8304-1.018-1.6144 0-2.3904-.019-2.6144 1.233-.3184 1.8017.1232 1.6726 1.4528 1.749 2.1616.1578 4.248-.2531 3.6528 3.0394-.5088 2.8482-2.1904 2.9677-4.1008 2.9677-1.8528 0-3.7776-.1146-3.368-2.3704l.1632-.9366h1.3376l-.1376.7838c-.176.9653.2944 1.1756 2.2528 1.1756.8816 0 2.1856.2293 2.5056-1.558.3472-1.8876-.3904-1.5388-1.9296-1.6534-1.8336-.153-3.7488.0764-3.2336-2.7909.5232-2.9246 1.952-2.982 4.2672-2.982 1.496 0 3.3296.0765 2.9152 2.3656l-.072.3822" fill="#1c4882" fill-rule="nonzero"/></svg>